<svg t="1609747320563" class="icon" viewBox="0 0 1024 1024" version="1.1" xmlns="http://www.w3.org/2000/svg" p-id="5037" width="200" height="200"><path d="M40.474308 242.84585c0 133.565217 211.478261 242.84585 471.525692 242.84585 261.059289 0 471.525692-108.268775 471.525692-242.84585 0-133.565217-211.478261-242.84585-471.525692-242.84585-261.059289 1.011858-471.525692 109.280632-471.525692 242.84585zM512 558.545455c-192.252964 0-358.197628-59.699605-432.063241-144.695653-25.296443 30.355731-40.474308 62.735178-40.474308 98.150198 0 133.565217 211.478261 242.84585 471.525691 242.84585 261.059289 0 471.525692-108.268775 471.525692-242.84585 0-34.403162-14.166008-67.794466-40.474308-98.150198C870.197628 498.84585 704.252964 558.545455 512 558.545455z m0 275.225296c-195.288538 0-363.256917-60.711462-434.086957-147.731225-24.284585 29.343874-37.438735 60.711462-37.438735 95.114624 0 133.565217 211.478261 242.84585 471.525692 242.84585 261.059289 0 471.525692-108.268775 471.525692-242.84585 0-33.391304-13.15415-65.770751-37.438735-95.114624-70.83004 87.019763-238.798419 147.731225-434.086957 147.731225z" p-id="5038" fill="#515151"></path></svg>