<svg t="1609839954582" class="icon" viewBox="0 0 1024 1024" version="1.1" xmlns="http://www.w3.org/2000/svg" p-id="2485" width="200" height="200"><path d="M533.884426 73.629951 533.884426 73.629951 533.884426 73.629951c-23.153326-9.502421-50.698682-4.712325-69.399603 14.090926L148.529825 407.189909c-12.249999 12.440333-18.431791 28.64541-18.431791 44.847417 0 16.463973 6.317892 32.915667 18.938328 45.356001 25.074072 24.747637 65.391313 24.565489 90.205465-0.508583L441.407222 299.475675l0 597.377506c0 35.219129 35.651988 63.794955 70.861908 63.794955s70.848605-28.576849 70.848605-63.794955l0-593.988316 199.503776 191.83819c24.937972 24.88169 65.321728 24.824385 90.202395-0.124843 24.936949-25.004487 24.734334-65.322751-0.1361-90.202395L555.014676 87.595011c-0.066515-0.058328-0.135076-0.058328-0.190335-0.124843-0.069585-0.057305-0.069585-0.12382-0.124843-0.190335-5.943362-5.866614-12.837376-10.080589-20.034289-13.141298C534.405289 74.014714 534.144346 73.696466 533.884426 73.629951L533.884426 73.629951z" p-id="2486" fill="#515151"></path></svg>