<svg t="1609755926658" class="icon" viewBox="0 0 1224 1024" version="1.1" xmlns="http://www.w3.org/2000/svg" p-id="10865" width="200" height="200"><path d="M938.210377 566.34019a54.057034 54.057034 0 0 1-57.206071-57.206071 54.057034 54.057034 0 0 1 57.206071-57.206071h114.403562a54.057034 54.057034 0 0 1 57.206071 57.206071A54.057034 54.057034 0 0 1 1052.613939 566.34019h-114.403562z" fill="#515151" p-id="10866"></path><path d="M1092.659047 663.582789A56.631179 56.631179 0 0 1 1012.594573 583.501154l114.403561-114.403562A56.631179 56.631179 0 0 1 1207.062609 549.179227z" fill="#515151" p-id="10867"></path><path d="M1012.594573 434.775665a56.631179 56.631179 0 0 1 80.081635-80.081635l114.403562 114.403562A56.631179 56.631179 0 0 1 1126.980973 549.179227zM286.110933 566.34019A54.057034 54.057034 0 0 0 343.317004 509.134119a54.057034 54.057034 0 0 0-57.206071-57.206071h-171.609633a54.057034 54.057034 0 0 0-57.206071 57.206071A54.057034 54.057034 0 0 0 114.5013 566.34019h171.609633z" fill="#515151" p-id="10868"></path><path d="M1109.82001 795.155894a57.206071 57.206071 0 0 1 114.403562 0v57.206072a168.546401 168.546401 0 0 1-171.609633 171.609633H171.707371a168.546401 168.546401 0 0 1-171.609633-171.609633v-57.206072A54.057034 54.057034 0 0 1 57.303809 737.949823a54.057034 54.057034 0 0 1 57.206071 57.206071v57.206072A54.057034 54.057034 0 0 0 171.707371 909.559456h880.906568a54.057034 54.057034 0 0 0 57.206071-57.206071v-57.197491zM114.5013 228.844106a54.057034 54.057034 0 0 1-57.206071 57.206071A54.057034 54.057034 0 0 1 0.097738 228.844106V171.638034A168.546401 168.546401 0 0 1 171.707371 0.028401h880.906568a168.546401 168.546401 0 0 1 171.609633 171.609633v57.206072a57.206071 57.206071 0 1 1-114.403562 0V171.638034a54.057034 54.057034 0 0 0-57.206071-57.206071H171.707371A54.057034 54.057034 0 0 0 114.5013 171.638034z" fill="#515151" p-id="10869"></path><path d="M131.662263 663.582789a55.292624 55.292624 0 0 0 80.081635 0 55.292624 55.292624 0 0 0 0-80.081635L97.340336 469.097592a55.292624 55.292624 0 0 0-80.081635 0A55.292624 55.292624 0 0 0 17.258701 549.179227z" fill="#515151" p-id="10870"></path><path d="M211.752479 434.775665a55.292624 55.292624 0 0 0 0-80.081635 55.292624 55.292624 0 0 0-80.081635 0L17.258701 469.097592A55.292624 55.292624 0 0 0 17.258701 549.179227a55.292624 55.292624 0 0 0 80.081635 0z" fill="#515151" p-id="10871"></path></svg>