<svg t="1608027172960" class="icon" viewBox="0 0 1024 1024" version="1.1" xmlns="http://www.w3.org/2000/svg" p-id="61454" width="200" height="200"><path d="M862.979961 568.705895h-217.509844a111.537685 111.537685 0 0 0-109.038877 113.582164v228.129777a111.537685 111.537685 0 0 0 109.038877 113.582164h217.509844a111.424103 111.424103 0 0 0 108.470967-113.582164v-227.902612a111.424103 111.424103 0 0 0-108.470967-113.582164z m-507.712273 0H137.757844a111.424103 111.424103 0 0 0-108.470967 113.582164v228.129777a111.424103 111.424103 0 0 0 108.470967 113.582164h217.509844a111.537685 111.537685 0 0 0 109.038877-113.582164v-227.902612a111.537685 111.537685 0 0 0-109.038877-113.582164z m0-531.16699H137.757844a111.424103 111.424103 0 0 0-108.470967 113.582164v227.618657a111.424103 111.424103 0 0 0 108.470967 113.582164h217.509844a111.537685 111.537685 0 0 0 109.038877-113.582164V151.348234A111.537685 111.537685 0 0 0 355.267688 37.482114z m391.858466 480.395763a116.705674 116.705674 0 0 1-84.618712-36.687039L535.295418 347.618213a129.086129 129.086129 0 0 1 0-177.188176L662.507442 36.800621a116.024181 116.024181 0 0 1 169.237424 0l127.779935 133.629416a129.824414 129.824414 0 0 1 0 177.188176l-127.779935 133.629416a115.797016 115.797016 0 0 1-84.618712 36.687039z m0-456.145971a57.983695 57.983695 0 0 0-42.593312 18.627475L576.752908 214.045588a64.798625 64.798625 0 0 0 0 90.013865l127.779934 133.629416a58.608397 58.608397 0 0 0 85.754534 0l127.779935-133.629416a66.729521 66.729521 0 0 0 0-90.013865L790.287376 80.416172a59.233099 59.233099 0 0 0-43.161222-18.627475z" p-id="61455" fill="#707070"></path></svg>