<svg t="1608023159656" class="icon" viewBox="0 0 1338 1024" version="1.1" xmlns="http://www.w3.org/2000/svg" p-id="25532" width="200" height="200"><path d="M409.793792 1023.42198C270.38666 1014.355029 160.152974 899.748892 160.152974 759.701817 160.152974 613.733973 279.904398 495.403648 427.625273 495.403648 435.642709 495.403648 443.577771 495.752215 451.415751 496.434844 475.185124 394.89385 567.280384 319.204864 677.266091 319.204864 788.820565 319.204864 881.970603 397.06839 904.091676 500.795395 947.162425 475.008307 997.69051 460.163891 1051.727332 460.163891 1209.296242 460.163891 1337.031111 586.382905 1337.031111 742.081934 1337.031111 897.780992 1209.296242 1024 1051.727332 1024L409.793792 1024 409.793792 1023.42198ZM569.045134 266.235602C530.006044 205.346864 461.832363 165.011189 384.259982 165.011189 263.035762 165.011189 164.764132 263.515221 164.764132 385.026105 164.764132 432.830054 179.974002 477.073146 205.807559 513.158363 255.88955 454.756824 328.869404 416.653736 410.786048 412.843179 442.506126 345.702815 499.298332 292.784902 569.045134 266.235602ZM301.949042 27.19286C301.949042 12.174657 314.12736 0 329.386012 0 344.539051 0 356.823012 12.193038 356.823012 27.19286L356.823012 82.814598C356.823012 97.832801 344.644693 110.007458 329.386012 110.007458 314.233003 110.007458 301.949042 97.81442 301.949042 82.814598L301.949042 27.19286ZM548.464412 70.942663C558.896953 60.139474 576.114517 59.841522 587.090688 70.441088 597.990855 80.967265 598.357191 98.271354 587.937451 109.061325L549.299342 149.072253C538.86683 159.875442 521.649266 160.173394 510.673095 149.573831 499.7729 139.047652 499.406564 121.743562 509.826332 110.953591L548.464412 70.942663ZM108.944014 125.955621C98.140843 115.5231 80.923335 115.826216 70.323797 126.802386 59.797618 137.702562 60.035385 155.008896 70.825358 165.428651L110.836281 204.066753C121.639481 214.499274 138.85696 214.196159 149.456526 203.219988 159.982706 192.319812 159.74491 175.013478 148.954937 164.593727L108.944014 125.955621ZM82.827065 357.58912C97.845248 357.58912 110.019925 369.767433 110.019925 385.026105 110.019925 400.179132 97.826873 412.463087 82.827065 412.463087L27.205319 412.463087C12.187108 412.463087 0.012459 400.284774 0.012459 385.026105 0.012459 369.873075 12.205511 357.58912 27.205319 357.58912L82.827065 357.58912Z" p-id="25533" fill="#707070"></path></svg>