<svg t="1610005390095" class="icon" viewBox="0 0 1038 1024" version="1.1" xmlns="http://www.w3.org/2000/svg" p-id="1332" width="200" height="200"><path d="M475.357168 381.176991m46.091516 0l0 0q46.091516 0 46.091516 46.091516l0 225.541151q0 46.091516-46.091516 46.091516l0 0q-46.091516 0-46.091516-46.091516l0-225.541151q0-46.091516 46.091516-46.091516Z" fill="#d81e06" p-id="1333"></path><path d="M970.533688 1024H67.908167a67.908167 67.908167 0 0 1-60.533524-98.482206L456.15237 37.180643A67.60089 67.60089 0 0 1 516.685894 0.000154a67.60089 67.60089 0 0 1 60.379886 37.026851L1030.913574 925.364156a67.908167 67.908167 0 0 1-60.379886 98.635844zM107.546871 931.816968h823.194475L516.839532 121.681756z" fill="#d81e06" p-id="1334"></path><path d="M521.448684 800.763424m-46.091516 0a46.091516 46.091516 0 1 0 92.183032 0 46.091516 46.091516 0 1 0-92.183032 0Z" fill="#d81e06" p-id="1335"></path></svg>