<svg t="1608026119551" class="icon" viewBox="0 0 1024 1024" version="1.1" xmlns="http://www.w3.org/2000/svg" p-id="53229" width="200" height="200"><path d="M179.2 614.4h153.6V460.8H179.2v153.6z m0 230.4h153.6v-153.6H179.2v153.6z m256-230.4h153.6V460.8H435.2v153.6z m0 230.4h153.6v-153.6H435.2v153.6z m256-230.4h153.6V460.8h-153.6v153.6zM870.4 0h-25.6v128h-153.6V0H332.8v128H179.2V0h-25.6C70.4 0 0 70.4 0 153.6v716.8C0 953.6 70.4 1024 153.6 1024h716.8c83.2 0 153.6-70.4 153.6-153.6V153.6C1024 70.4 953.6 0 870.4 0z m-6.4 972.8H153.6c-44.8 0-102.4-57.6-102.4-102.4V332.8h921.6v531.2c0 51.2-57.6 108.8-108.8 108.8z m-172.8-128h153.6v-153.6h-153.6v153.6z" p-id="53230" fill="#707070"></path></svg>